# xmcd
#
# Track frame offsets: 
#        150
#        17720
#        37277
#        56090
#        74505
#        92143
#        105691
#        125625
#        149835
#        171639
#        190504
#        205644
#
# Disc length: 2971 seconds
#
# Revision: 0
# Processed by: cddbd v1.5.2PL0 Copyright (c) Steve Scherf et al.
# Submitted via: ExactAudioCopy v0.95a4
#
DISCID=bd0b990c
DTITLE=Randy Sharp - The Connection
DYEAR=2002
DGENRE=Country
TTITLE0=I Won't Stand in Line
TTITLE1=Some Walls
TTITLE2=The Connection
TTITLE3=Pretending
TTITLE4=New Way Out
TTITLE5=Or So the Heart Remembers
TTITLE6=Burn Day
TTITLE7=Dreams of the San Joaquin
TTITLE8=Good Thing
TTITLE9=The Search Goes On
TTITLE10=Queen of Indecision
TTITLE11=If You Have to Ask
EXTD=
EXTT0=
EXTT1=
EXTT2=
EXTT3=
EXTT4=
EXTT5=
EXTT6=
EXTT7=
EXTT8=
EXTT9=
EXTT10=
EXTT11=
PLAYORDER=
